<?xml version="1.0" encoding="utf-8"?>
<!-- Generator: Adobe Illustrator 24.1.2, SVG Export Plug-In . SVG Version: 6.00 Build 0)  -->
<svg version="1.1" xmlns="http://www.w3.org/2000/svg" xmlns:xlink="http://www.w3.org/1999/xlink" x="0px" y="0px"
	 viewBox="0 0 34.1 34.1" style="enable-background:new 0 0 34.1 34.1;" xml:space="preserve">
<style type="text/css">
	.st0{fill-rule:evenodd;clip-rule:evenodd;fill:#3E58B9;}
	.st1{fill-rule:evenodd;clip-rule:evenodd;fill:#FFFFFF;}
</style>
<g id="Слой_3">
	<path class="st0" d="M0,0h34.1v34.1H0V0z"/>
</g>
<g id="Слой_2">
	<g>
		<g>
			<path class="st1" d="M16.2,13.8C16.2,13.8,16.1,13.8,16.2,13.8c-2.2,0-4,1.8-4,4c0,2.2,1.8,4,4,4c2.2,0,4-1.8,4-4
				C20.1,15.6,18.4,13.8,16.2,13.8z M16.1,20.4c-1.4,0-2.6-1.2-2.6-2.6c0-1.4,1.2-2.6,2.6-2.6s2.6,1.2,2.6,2.6
				C18.7,19.2,17.6,20.4,16.1,20.4z M23.8,14.6c0-0.6-0.1-1.3-0.4-1.9c-0.2-0.5-0.5-1-0.9-1.4c-0.4-0.4-0.9-0.7-1.4-0.9
				c-0.6-0.2-1.2-0.4-1.9-0.4c-0.8,0-1.1,0-3.2,0s-2.4,0-3.2,0c-0.6,0-1.3,0.1-1.9,0.4c-0.5,0.2-1,0.5-1.4,0.9
				c-0.4,0.4-0.7,0.9-0.9,1.4c-0.2,0.6-0.4,1.2-0.4,1.9c0,0.8,0,1.1,0,3.2c0,2.1,0,2.4,0,3.2c0,0.6,0.1,1.3,0.4,1.9
				c0.2,0.5,0.5,1,0.9,1.4c0.4,0.4,0.9,0.7,1.4,0.9c0.6,0.2,1.2,0.4,1.9,0.4c0.8,0,1.1,0,3.2,0s2.4,0,3.2,0c0.6,0,1.3-0.1,1.9-0.4
				c0.5-0.2,1-0.5,1.4-0.9c0.4-0.4,0.7-0.9,0.9-1.4c0.2-0.6,0.3-1.2,0.4-1.9c0-0.8,0-1.1,0-3.2C23.9,15.7,23.9,15.4,23.8,14.6z
				 M22.4,20.9c0,0.5-0.1,1-0.3,1.4c-0.1,0.3-0.3,0.6-0.6,0.9c-0.3,0.3-0.6,0.5-0.9,0.6c-0.5,0.2-0.9,0.3-1.4,0.3
				c-0.8,0-1.1,0-3.1,0c-2,0-2.3,0-3.1,0c-0.5,0-1-0.1-1.5-0.2c-0.3-0.1-0.6-0.3-0.9-0.6c-0.3-0.2-0.5-0.6-0.6-0.9
				c-0.2-0.5-0.3-1-0.3-1.5c0-0.8,0-1.1,0-3.1c0-2,0-2.3,0-3.1c0-0.5,0.1-1,0.3-1.5c0.1-0.3,0.3-0.6,0.6-0.9
				c0.2-0.3,0.5-0.5,0.9-0.6c0.5-0.2,1-0.3,1.5-0.3c0.8,0,1.1,0,3.1,0c2,0,2.3,0,3.1,0c0.5,0,1,0.1,1.4,0.3c0.4,0.1,0.7,0.3,0.9,0.6
				c0.3,0.2,0.5,0.5,0.6,0.9c0.2,0.5,0.3,1,0.3,1.5c0,0.8,0,1.1,0,3.1C22.5,19.8,22.5,20.1,22.4,20.9z M20.3,12.7
				c-0.5,0-0.9,0.4-0.9,0.9c0,0.5,0.4,0.9,0.9,0.9c0.5,0,0.9-0.4,0.9-0.9C21.2,13.2,20.8,12.7,20.3,12.7z"/>
		</g>
	</g>
</g>
</svg>
