<?xml version="1.0" encoding="utf-8"?>
<!-- Generator: Adobe Illustrator 24.1.2, SVG Export Plug-In . SVG Version: 6.00 Build 0)  -->
<svg version="1.1" xmlns="http://www.w3.org/2000/svg" xmlns:xlink="http://www.w3.org/1999/xlink" x="0px" y="0px"
	 viewBox="0 0 34.1 34.1" style="enable-background:new 0 0 34.1 34.1;" xml:space="preserve">
<style type="text/css">
	.st0{fill-rule:evenodd;clip-rule:evenodd;fill:#3E58B9;}
	.st1{fill-rule:evenodd;clip-rule:evenodd;fill:#FFFFFF;}
</style>
<g id="Слой_3">
	<path class="st0" d="M0,0h34.1v34.1H0V0z"/>
</g>
<g id="Слой_2">
	<g>
		<g>
			<path class="st1" d="M22.5,12.7c0.7-0.4,1.2-1,1.4-1.8c-0.6,0.4-1.3,0.6-2,0.8c-1.2-1.3-3.2-1.4-4.5-0.2c-0.8,0.8-1.2,2-0.9,3.1
				c-2.6-0.1-4.9-1.4-6.5-3.4c-0.3,0.5-0.4,1.1-0.4,1.6c0,1.1,0.5,2.1,1.4,2.7c-0.5,0-1-0.1-1.4-0.4v0c0,1.5,1.1,2.8,2.6,3.1
				c-0.3,0.1-0.6,0.1-0.9,0.1c-0.2,0-0.4,0-0.6-0.1c0.4,1.3,1.6,2.2,3,2.2C12.4,21.5,11,22,9.6,22c-0.3,0-0.5,0-0.8,0
				c1.5,0.9,3.1,1.5,4.9,1.4c5,0.1,9-4,9.1-9c0-0.1,0-0.1,0-0.2v-0.4c0.6-0.5,1.1-1,1.5-1.7C23.7,12.5,23.1,12.6,22.5,12.7z"/>
		</g>
	</g>
</g>
</svg>
