<?xml version="1.0" standalone="no"?>
<!DOCTYPE svg PUBLIC "-//W3C//DTD SVG 1.1//EN" "http://www.w3.org/Graphics/SVG/1.1/DTD/svg11.dtd" >
<svg xmlns="http://www.w3.org/2000/svg">
<metadata>Generated by IcoMoon</metadata>
<defs>
<font id="icons" horiz-adv-x="1024">
<font-face units-per-em="1024" ascent="960" descent="-64" />
<missing-glyph horiz-adv-x="1024" />
<glyph unicode="&#x20;" horiz-adv-x="512" d="" />
<glyph unicode="&#xe900;" glyph-name="plus" d="M0 960v-1024h1024v1024h-1024zM960.938-0.938h-900.88v900.88h900.88v-900.88zM480.469 239.296h60.059v180.176h180.176v60.059h-180.176v180.176h-60.059v-180.176h-180.176v-60.059h180.176v-180.176z" />
<glyph unicode="&#xe901;" glyph-name="minus" d="M0 960v-1024h1024v1024h-1024zM960.938-0.938h-900.88v900.88h900.88v-900.88zM720.704 479.531h-420.411v-60.059h420.411v60.059z" />
<glyph unicode="&#xe902;" glyph-name="input-more" horiz-adv-x="1820" d="M113.778 960l796.444-796.444 796.444 796.444 113.778-113.778-910.222-910.222-910.222 910.222 113.778 113.778z" />
<glyph unicode="&#xe903;" glyph-name="close" d="M1024 930.133l-29.867 29.867-482.133-482.133-482.133 482.133-29.867-29.867 482.133-482.133-482.133-482.133 29.867-29.867 482.133 482.133 482.133-482.133 29.867 29.867-482.133 482.133z" />
<glyph unicode="&#xe904;" glyph-name="menu-9" horiz-adv-x="926" d="M335.127 238.545c13.964-9.309 32.582-4.655 46.545 4.655l246.691 172.218c13.964 9.309 18.618 23.273 18.618 37.236s-9.309 27.927-18.618 37.236l-242.036 167.564c-9.309 4.655-18.618 9.309-27.927 9.309s-13.964 0-23.273-4.655c-13.964-9.309-23.273-23.273-23.273-41.891v-74.473h-269.964c-13.964 0-32.582-13.964-32.582-27.927v-134.982c0-13.964 13.964-27.927 32.582-27.927h269.964v-74.473c0-18.618 9.309-37.236 23.273-41.891zM688.873 960h-451.491c-130.327 0-237.382-102.4-237.382-232.727 0-37.236 27.927-65.164 65.164-65.164s65.164 27.927 65.164 65.164c0 55.855 46.545 102.4 102.4 102.4h456.145c55.855 0 102.4-46.545 102.4-102.4v-553.891c0-55.855-46.545-102.4-102.4-102.4h-451.491c-55.855 0-102.4 46.545-102.4 102.4 0 37.236-27.927 65.164-65.164 65.164s-65.164-27.927-65.164-65.164c0-130.327 107.055-232.727 232.727-232.727h456.145c130.327 0 232.727 102.4 232.727 232.727v553.891c0 130.327-107.055 232.727-237.382 232.727z" />
<glyph unicode="&#xe905;" glyph-name="menu-8" horiz-adv-x="1543" d="M771.507 539.178c112.219 0 210.411 91.178 210.411 210.411 0 112.219-91.178 210.411-210.411 210.411-112.219 0-210.411-91.178-210.411-210.411 7.014-112.219 98.192-210.411 210.411-210.411zM1241.425 546.192c84.164 0 154.301 70.137 154.301 154.301s-70.137 154.301-154.301 154.301c-84.164 0-154.301-70.137-154.301-154.301s63.123-154.301 154.301-154.301zM1241.425 490.082c-70.137 0-119.233-14.027-168.329-49.096 7.014-7.014 14.027-14.027 21.041-14.027 77.151-77.151 126.247-189.37 147.288-336.658 0-7.014 0-14.027 0-14.027 168.329 0 315.616 28.055 308.603 105.205-35.068 196.384-140.274 308.603-308.603 308.603zM308.603 546.192c84.164 0 154.301 70.137 154.301 154.301s-70.137 154.301-154.301 154.301-154.301-70.137-154.301-154.301c0-84.164 70.137-154.301 154.301-154.301zM476.932 440.986c-49.096 35.068-105.205 49.096-168.329 49.096-175.342 0-273.534-112.219-308.603-315.616-14.027-77.151 140.274-105.205 308.603-105.205 0 7.014 0 14.027 0 14.027 21.041 147.288 70.137 259.507 147.288 336.658 7.014 14.027 14.027 21.041 21.041 21.041zM771.507 497.096c-231.452 0-364.712-154.301-413.808-420.822-14.027-98.192 182.356-140.274 413.808-140.274 224.438 0 427.836 42.082 413.808 140.274-42.082 266.521-182.356 420.822-413.808 420.822z" />
<glyph unicode="&#xe906;" glyph-name="menu-7" horiz-adv-x="979" d="M905.275 396.058v108.831c39.575 29.681 64.309 89.043 69.256 98.937s4.947 24.734 0 34.628l-79.15 138.512c-4.947 9.894-14.841 19.787-29.681 19.787-9.894 0-24.734 0-34.628 0-34.628 0-64.309-4.947-84.097-14.841l-93.99 54.415c-4.947 49.469-44.522 103.884-49.469 108.831-9.894 9.894-19.787 14.841-34.628 14.841h-158.3c-14.841 0-24.734-4.947-29.681-14.841-4.947-4.947-44.522-59.362-49.469-108.831l-98.937-54.415c-19.787 9.894-49.469 14.841-84.097 14.841-9.894 0-24.734 0-34.628 0-14.841 0-24.734-9.894-29.681-19.787l-79.15-138.512c-4.947-14.841-4.947-24.734 0-39.575 4.947-9.894 29.681-69.256 69.256-98.937v-108.831c-39.575-29.681-64.309-89.043-69.256-98.937s-4.947-24.734 0-34.628l79.15-138.512c4.947-9.894 14.841-19.787 29.681-19.787 9.894 0 24.734 0 34.628 0 34.628 0 64.309 4.947 84.097 14.841l93.99-54.415c4.947-49.469 44.522-103.884 49.469-108.831 9.894-9.894 19.787-14.841 29.681-14.841h158.3c14.841 0 24.734 4.947 29.681 14.841 4.947 4.947 44.522 59.362 49.469 108.831l93.99 54.415c19.787-9.894 49.469-14.841 84.097-14.841 9.894 0 24.734 0 34.628 0 14.841 0 24.734 9.894 29.681 19.787l79.15 138.512c4.947 9.894 4.947 24.734 0 34.628 9.894 14.841-19.787 74.203-59.362 103.884zM643.092 361.43c-29.681-54.415-89.043-84.097-153.353-84.097-93.99 0-173.14 74.203-173.14 168.193 0 29.681 9.894 64.309 24.734 89.043 49.469 84.097 153.353 113.778 237.449 64.309 79.15-49.469 108.831-153.353 64.309-237.449z" />
<glyph unicode="&#xe907;" glyph-name="menu-6" horiz-adv-x="1474" d="M1307.234 960h-1140.199c-94.411 0-167.035-72.624-167.035-167.035v-58.099h1474.27v58.099c0 94.411-79.887 167.035-167.035 167.035zM0 110.298c0-94.411 72.624-167.035 167.035-167.035h1140.199c94.411 0 167.035 72.624 167.035 167.035v450.27h-1474.27v-450.27zM283.234 277.333h167.035c36.312 0 58.099-21.787 58.099-50.837s-21.787-58.099-58.099-58.099h-167.035c-29.050 0-58.099 21.787-58.099 58.099s29.050 50.837 58.099 50.837z" />
<glyph unicode="&#xe908;" glyph-name="menu-5" horiz-adv-x="1082" d="M538.947 97.684c-296.421 0-538.947 53.895-538.947 121.263v-121.263c0-107.789 269.474-161.684 538.947-161.684 273.965 0 538.947 53.895 538.947 161.684v121.263c0-67.368-238.035-121.263-538.947-121.263zM538.947 178.526c296.421 0 538.947 53.895 538.947 121.263s-242.526 121.263-538.947 121.263-538.947-53.895-538.947-121.263c0-67.368 242.526-121.263 538.947-121.263zM381.754 753.404h71.86v-166.175c0-8.982 13.474-17.965 31.439-17.965h130.246c13.474 0 31.439 8.982 31.439 17.965v161.684h71.86c17.965 0 31.439 4.491 40.421 13.474s4.491 22.456-4.491 31.439l-170.667 152.702c-8.982 8.982-22.456 13.474-35.93 13.474s-26.947-4.491-35.93-13.474l-166.175-148.211c-4.491-4.491-8.982-13.474-8.982-17.965s0-8.982 4.491-13.474c8.982-8.982 22.456-13.474 40.421-13.474z" />
<glyph unicode="&#xe909;" glyph-name="menu-4" horiz-adv-x="1252" d="M455.111 732.444h682.667c63.21 0 113.778 50.568 113.778 113.778s-50.568 113.778-113.778 113.778h-682.667c-63.21 0-113.778-50.568-113.778-113.778s50.568-113.778 113.778-113.778zM113.778 163.556c-63.21 0-113.778-50.568-113.778-113.778s50.568-113.778 113.778-113.778 113.778 50.568 113.778 113.778c0 63.21-50.568 113.778-113.778 113.778zM113.778 561.778c-63.21 0-113.778-50.568-113.778-113.778s50.568-113.778 113.778-113.778 113.778 50.568 113.778 113.778c0 63.21-50.568 113.778-113.778 113.778zM1137.778 561.778h-682.667c-63.21 0-113.778-50.568-113.778-113.778s50.568-113.778 113.778-113.778h682.667c63.21 0 113.778 50.568 113.778 113.778s-50.568 113.778-113.778 113.778zM1137.778 163.556h-682.667c-63.21 0-113.778-50.568-113.778-113.778s50.568-113.778 113.778-113.778h682.667c63.21 0 113.778 50.568 113.778 113.778s-50.568 113.778-113.778 113.778zM113.778 960c-63.21 0-113.778-50.568-113.778-113.778s50.568-113.778 113.778-113.778 113.778 50.568 113.778 113.778c0 63.21-50.568 113.778-113.778 113.778z" />
<glyph unicode="&#xe90a;" glyph-name="menu-3" horiz-adv-x="1143" d="M984.178 305.778h-34.133v-210.489h79.644c45.511 0 79.644 34.133 79.644 79.644v244.622h-125.156v-113.778zM984.178 800.711h-79.644v79.644c0 45.511-34.133 79.644-79.644 79.644h-312.889c-45.511 0-79.644-34.133-79.644-79.644v-45.511h79.644v45.511h318.578v-79.644h-113.778c22.756-22.756 34.133-51.2 34.133-79.644v-45.511h45.511c102.4 0 182.044-79.644 193.422-176.356h159.289v142.222c-5.689 91.022-79.644 159.289-164.978 159.289zM551.822 180.622h-159.289c-51.2 0-96.711 34.133-113.778 79.644h-244.622v-244.622c0-45.511 34.133-79.644 79.644-79.644h728.178c45.511 0 79.644 34.133 79.644 79.644v244.622h-250.311c-22.756-45.511-68.267-79.644-119.467-79.644zM790.756 641.422h-79.644v79.644c0 45.511-34.133 79.644-79.644 79.644h-312.889c-45.511 0-79.644-34.133-79.644-79.644v-79.644h-79.644c-91.022 0-159.289-68.267-159.289-159.289v-142.222h358.4v-39.822c0-22.756 17.067-39.822 39.822-39.822h159.289c22.756 0 39.822 17.067 39.822 39.822v39.822h358.4v142.222c-5.689 91.022-79.644 159.289-164.978 159.289zM631.467 641.422h-312.889v79.644h318.578v-79.644z" />
<glyph unicode="&#xe90b;" glyph-name="menu-2" horiz-adv-x="1008" d="M590.367 197.224h-167.184c-57.469 0-99.265 36.571-120.163 83.592h-271.673v-261.224c0-47.020 36.571-83.592 83.592-83.592h773.224c47.020 0 83.592 36.571 83.592 83.592v261.224h-266.449c-15.673-47.020-62.694-83.592-114.939-83.592zM841.143 792.816h-83.592v83.592c0 47.020-36.571 83.592-83.592 83.592h-339.592c-41.796 0-83.592-36.571-83.592-83.592v-83.592h-83.592c-94.041 0-167.184-78.367-167.184-172.408v-99.265h381.388v-41.796c0-20.898 20.898-41.796 41.796-41.796h167.184c20.898 0 41.796 20.898 41.796 41.796v41.796h381.388v99.265c-5.224 94.041-78.367 172.408-172.408 172.408zM673.959 792.816h-339.592v83.592h334.367v-83.592z" />
<glyph unicode="&#xe90c;" glyph-name="menu-1" horiz-adv-x="983" d="M961.939 525.576l-393.051 403.394c-41.374 46.545-113.778 46.545-155.152 0l-387.879-403.394c-15.515-15.515-25.859-36.202-25.859-56.889v-444.768c0-46.545 36.202-82.747 82.747-82.747h175.838c46.545 0 82.747 36.202 82.747 82.747v170.667c0 87.919 62.061 155.152 149.98 155.152 77.576 0 149.98-72.404 149.98-155.152v-170.667c0-46.545 36.202-82.747 82.747-82.747h181.010c46.545 0 82.747 36.202 82.747 82.747v444.768c-5.172 20.687-10.343 41.374-25.859 56.889z" />
<glyph unicode="&#xe90d;" glyph-name="check" horiz-adv-x="1414" d="M1413.664 833.133l-897.133-897.133-516.531 507.469 126.867 126.867 380.602-380.602 770.265 770.265 135.929-126.867z" />
<glyph unicode="&#xe90e;" glyph-name="faq-plus" d="M0 960v-1024h1024v1024h-1024zM921.6 38.4h-819.2v819.2h819.2v-819.2zM460.8 243.2h102.4v153.6h153.6v102.4h-153.6v153.6h-102.4v-153.6h-153.6v-102.4h153.6v-153.6z" />
<glyph unicode="&#xe90f;" glyph-name="faq-minus" d="M0 960v-1024h1024v1024h-1024zM921.6 38.4h-819.2v819.2h819.2v-819.2zM716.8 499.2h-409.6v-102.4h409.6v102.4z" />
<glyph unicode="&#xe910;" glyph-name="faq-tab-6" d="M776 432c-64 0-124-24-168-64l-68 56v44c124 16 216 120 216 244 4 136-108 248-244 248s-248-112-248-248c0-128 96-232 216-244v-44l-68-56c-44 40-104 64-168 64-132 0-244-112-244-248s112-248 248-248c136 0 248 112 248 248 0 52-16 96-40 136l60 52 60-48c-24-40-40-84-40-136 0-136 112-248 248-248s248 112 248 248c-8 132-120 244-256 244zM248-4c-44 0-84 16-120 44 8 48 44 84 92 84h52c48 0 88-40 92-84-32-28-72-44-116-44zM196 232c0 28 24 48 48 48 28 0 48-24 48-48 0-28-24-48-48-48s-48 20-48 48zM412 92c-8 16-16 28-28 44s-28 24-44 32c12 16 20 40 20 64 0 60-48 108-108 108s-108-48-108-108c0-24 8-44 20-64-16-8-32-20-44-32s-20-28-28-44c-16 28-24 56-24 92 0 104 84 188 188 188s188-84 188-188c-8-32-16-64-32-92zM348 624c-16 24-24 56-24 88 0 104 84 188 188 188s188-84 188-188c0-32-8-64-24-92-8 16-16 28-28 44s-28 28-48 36c12 16 20 40 20 64 0 60-48 108-108 108s-108-48-108-112c0-24 8-44 20-64-16-4-32-16-48-32-12-12-20-28-28-40zM564 760c0-28-24-48-48-48s-52 24-52 48c0 28 24 48 48 48s52-20 52-48zM396 568c4 48 44 84 92 84h52c48 0 84-36 92-84-32-28-72-44-120-44-44 0-84 16-116 44zM776-4c-44 0-84 16-120 44 8 48 44 84 92 84h52c48 0 84-36 92-84-28-28-72-44-116-44zM728 232c0 28 24 48 48 48 28 0 48-24 48-48 0-28-24-48-48-48-28 0-48 20-48 48zM940 92c-8 16-16 28-28 44s-28 24-44 32c12 16 20 40 20 64 0 60-48 108-108 108s-108-48-108-108c0-24 8-44 20-64-16-8-32-20-44-32s-20-28-28-44c-16 28-24 56-24 92 0 104 84 188 188 188s188-84 188-188c-8-32-16-64-32-92z" />
<glyph unicode="&#xe911;" glyph-name="faq-tab-5" horiz-adv-x="1092" d="M674.133 384c157.867 0 290.133 128 290.133 290.133 0 157.867-128 290.133-290.133 290.133-157.867 0-290.133-128-290.133-290.133 4.267-162.133 132.267-290.133 290.133-290.133zM674.133 768c17.067 0 34.133-12.8 34.133-29.867h64c0 42.667-25.6 76.8-64 89.6v64c106.667-17.067 192-110.933 192-221.867s-85.333-204.8-192-221.867v68.267c38.4 12.8 64 46.933 64 89.6 0 51.2-42.667 98.133-98.133 98.133-17.067 0-34.133 12.8-34.133 34.133 4.267 17.067 17.067 29.867 34.133 29.867zM644.267 891.733v-68.267c-38.4-12.8-64-46.933-64-89.6 0-51.2 42.667-98.133 98.133-98.133 17.067 0 34.133-12.8 34.133-29.867s-12.8-29.867-34.133-29.867c-17.067 0-34.133 12.8-34.133 29.867h-64c0-42.667 25.6-76.8 64-89.6v-68.267c-106.667 17.067-192 110.933-192 221.867 0 115.2 81.067 209.067 192 221.867zM1075.2 243.2c-25.6 34.133-59.733 55.467-102.4 64s-81.067 0-119.467-25.6l-98.133-64c8.533 21.333 17.067 42.667 17.067 68.267v34.133h-200.533c-8.533 0-17.067 4.267-21.333 8.533l-17.067 12.8c-85.333 72.533-213.333 72.533-294.4 0l-21.333-21.333h-217.6v-320h221.867l192-64h302.933l371.2 281.6-12.8 25.6zM196.267 64h-132.267v192h132.267v-192zM699.733 0h-273.067l-166.4 55.467v217.6l21.333 21.333c59.733 51.2 149.333 51.2 213.333 0l17.067-12.8c17.067-17.067 38.4-25.6 64-25.6h132.267c-12.8-38.4-46.933-64-89.6-64h-162.133v-64h281.6l153.6 102.4c34.133 21.333 76.8 21.333 110.933-4.267l-302.933-226.133z" />
<glyph unicode="&#xe912;" glyph-name="faq-tab-4" d="M180 80v-28h536v28c0 16 12 28 28 28h32v180h-32c-16 0-28 12-28 28v32h-536v-32c0-16-12-28-28-28h-28v-180h32c16 0 24-12 24-28zM568 284h96c8-24 28-44 52-52v-72c-24-8-44-28-52-52h-96c16 24 28 56 28 88s-12 64-28 88zM448 284c48 0 88-40 88-88s-40-88-88-88-88 40-88 88c4 48 40 88 88 88zM184 232c24 8 44 28 52 52h96c-16-24-28-56-28-88s12-64 28-88h-96c-8 24-28 44-52 52v72zM784 580h-240v120h-240v120h-304v-884h1024v524h-240v120zM540 520h180v-60h-180v60zM300 640h180v-60h-180v60zM300 520h180v-60h-180v60zM60 760h180v-60h-180v60zM60 640h180v-60h-180v60zM60 520h180v-60h-180v60zM900 400h64v-404h-64v404zM840 400v-404h-780v404h780zM744 692c12 0 20 0 28 4 24-40 68-64 116-64 76 0 136 60 136 136s-60 136-136 136c-8 0-20 0-28-4-24 40-68 64-116 64-76 0-136-60-136-136 4-76 64-136 136-136zM880 824c0 4 0 8 0 12 4 0 8 0 12 0 40 0 76-32 76-76 0-40-32-76-76-76-24 0-48 12-60 32 28 28 48 68 48 108zM744 900c40 0 76-32 76-76 0-40-32-76-76-76-40 0-76 32-76 76 4 44 36 76 76 76z" />
<glyph unicode="&#xe913;" glyph-name="faq-tab-3" d="M51.2 550.4c30.72 0 51.2 20.48 51.2 51.2v256h256c30.72 0 51.2 20.48 51.2 51.2s-20.48 51.2-51.2 51.2h-307.2c-30.72 0-51.2-20.48-51.2-51.2v-307.2c0-30.72 20.48-51.2 51.2-51.2zM512 755.2c-87.040 0-153.6-66.56-153.6-153.6v-51.2c-56.32 0-102.4-46.080-102.4-102.4v-204.8c0-56.32 46.080-102.4 102.4-102.4h307.2c56.32 0 102.4 46.080 102.4 102.4v204.8c0 56.32-46.080 102.4-102.4 102.4v51.2c0 87.040-66.56 153.6-153.6 153.6zM460.8 601.6c0 30.72 20.48 51.2 51.2 51.2s51.2-20.48 51.2-51.2v-51.2h-102.4v51.2zM665.6 243.2h-307.2v204.8h307.2v-204.8zM358.4 38.4h-256v256c0 30.72-20.48 51.2-51.2 51.2s-51.2-20.48-51.2-51.2v-307.2c0-30.72 20.48-51.2 51.2-51.2h307.2c30.72 0 51.2 20.48 51.2 51.2s-20.48 51.2-51.2 51.2zM972.8 960h-307.2c-30.72 0-51.2-20.48-51.2-51.2s20.48-51.2 51.2-51.2h256v-256c0-30.72 20.48-51.2 51.2-51.2s51.2 20.48 51.2 51.2v307.2c0 30.72-20.48 51.2-51.2 51.2zM972.8 345.6c-30.72 0-51.2-20.48-51.2-51.2v-256h-256c-30.72 0-51.2-20.48-51.2-51.2s20.48-51.2 51.2-51.2h307.2c30.72 0 51.2 20.48 51.2 51.2v307.2c0 30.72-20.48 51.2-51.2 51.2z" />
<glyph unicode="&#xe914;" glyph-name="faq-tab-2" d="M1024 364v168l-140 36c-8 20-16 40-24 60l72 124-116 116-124-72c-20 12-40 20-60 24l-36 140h-168l-36-140c-20-8-40-16-60-24l-120 72-120-120 72-124c-12-20-20-40-24-60l-140-32v-168l140-36c8-20 16-40 24-60l-72-124 116-116 124 72c20-12 40-20 60-24l36-140h168l36 140c20 8 40 16 60 24l124-72 116 116-72 124c12 20 20 40 24 60l140 36zM856 156l-52-52-112 68c-8-4-40-28-96-40l-16-4-32-128h-72l-32 128-16 4c-52 16-84 36-96 40l-112-68-52 52 68 112-8 16c-28 48-36 88-36 96l-128 32v72l128 32c0 12 8 48 36 96l8 16-68 112 52 52 112-68c8 4 40 28 96 40l16 4 32 128h72l32-128 16-4c52-16 84-36 96-40l112 68 52-52-68-112 8-16c28-48 36-88 36-96l128-32v-72l-128-32c-4-12-12-48-36-96l-8-16 68-112zM512 720c-148 0-272-124-272-272s120-272 272-272 268 120 268 272c0 148-120 272-268 272zM600 260c-28-12-56-20-92-20s-64 8-92 20v8c0 48 40 92 92 92s92-40 92-92v-8zM660 300c-12 68-76 120-148 120s-132-52-148-120c-40 40-64 92-64 148 0 116 96 208 212 208s208-96 208-208c0-60-24-112-60-148zM600 508c0 48-40 92-92 92s-92-40-92-92c0-48 40-92 92-92s92 44 92 92zM512 480c-16 0-32 12-32 28s12 32 32 32 32-12 32-32c-4-16-16-28-32-28z" />
<glyph unicode="&#xe915;" glyph-name="faq-tab-1" horiz-adv-x="964" d="M964 88v692h-212v180h-540v-180h-212v-692h360v-92h-60v-60h360v60h-60v92h364zM752 720h152v-452h-152v452zM272 900h420v-632h-420v632zM60 720h152v-452h-152v452zM544-4h-120v92h120v-92zM60 148v60h844v-60h-844zM332 748h60v60h-60v-60zM452 748h180v60h-180v-60zM332 628h60v60h-60v-60zM452 628h180v60h-180v-60zM332 508h60v60h-60v-60zM452 508h180v60h-180v-60zM332 388h60v60h-60v-60zM452 388h180v60h-180v-60z" />
<glyph unicode="&#xe916;" glyph-name="left-arrow-black" horiz-adv-x="3243" d="M3157.333 533.333h-2867.2l281.6 281.6c17.067 17.067 25.6 34.133 25.6 59.733s-8.533 42.667-25.6 59.733c-34.133 34.133-85.333 34.133-119.467 0l-418.133-418.133c-17.067-17.067-34.133-34.133-34.133-68.267s17.067-51.2 34.133-68.267l418.133-418.133c34.133-34.133 85.333-34.133 119.467 0 17.067 17.067 25.6 34.133 25.6 59.733s-8.533 42.667-25.6 59.733l-281.6 281.6h2867.2c51.2 0 85.333 34.133 85.333 85.333s-34.133 85.333-85.333 85.333z" />
<glyph unicode="&#xe917;" glyph-name="right-arrow-black" horiz-adv-x="3243" d="M3242.667 448c0 34.133-17.067 51.2-34.133 68.267l-418.133 418.133c-34.133 34.133-85.333 34.133-119.467 0-17.067-17.067-25.6-34.133-25.6-59.733s8.533-42.667 25.6-59.733l281.6-281.6h-2867.2c-51.2 0-85.333-34.133-85.333-85.333s34.133-85.333 85.333-85.333h2867.2l-281.6-281.6c-17.067-17.067-25.6-34.133-25.6-59.733s8.533-42.667 25.6-59.733c34.133-34.133 85.333-34.133 119.467 0l418.133 418.133c17.067 8.533 34.133 34.133 34.133 68.267v0 0z" />
<glyph unicode="&#xe918;" glyph-name="bnb" d="M512 728.774l198.194-198.194 115.613 115.613-313.806 313.806-313.806-313.806 115.613-115.613 198.194 198.194zM115.613 563.613l-115.613-115.613 115.613-115.613 115.613 115.613-115.613 115.613zM908.387 563.613l-115.613-115.613 115.613-115.613 115.613 115.613-115.613 115.613zM512 167.226l-198.194 198.194-115.613-115.613 313.806-313.806 313.806 313.806-115.613 115.613-198.194-198.194zM392.258 448l115.613-115.613 115.613 115.613-115.613 115.613-115.613-115.613z" />
<glyph unicode="&#xe919;" glyph-name="xrp" horiz-adv-x="946" d="M841.143 338.286c-36.571 18.286-73.143 27.429-118.857 27.429-36.571 0-82.286 22.857-82.286 82.286 0 45.714 36.571 82.286 82.286 82.286 41.143 0 82.286 9.143 118.857 27.429 68.571 41.143 105.143 109.714 105.143 187.429 0 73.143-41.143 146.286-105.143 187.429-32 18.286-73.143 27.429-105.143 27.429-36.571 0-73.143-9.143-105.143-27.429-68.571-41.143-105.143-109.714-105.143-187.429 0-41.143 13.714-77.714 36.571-114.286 13.714-32 22.857-86.857-32-114.286-41.143-22.857-91.429-9.143-114.286 32-32 32-59.429 64-96 86.857-68.571 41.143-146.286 41.143-214.857 0-64-41.143-105.143-109.714-105.143-187.429 0-73.143 41.143-146.286 105.143-187.429 68.571-41.143 146.286-41.143 214.857 0 36.571 18.286 64 50.286 82.286 86.857 13.714 27.429 59.429 64 114.286 32 41.143-22.857 50.286-77.714 32-114.286s-32-73.143-32-114.286c0-73.143 41.143-146.286 105.143-187.429 68.571-41.143 146.286-41.143 214.857 0s105.143 109.714 105.143 187.429-32 146.286-100.571 187.429z" />
<glyph unicode="&#xe91a;" glyph-name="trc" horiz-adv-x="1106" d="M665.6 616.96v112.64h317.44v230.4h-865.28v-230.4h317.44v-112.64c-250.88-15.36-435.2-71.68-435.2-143.36 0-66.56 184.32-128 435.2-143.36v-394.24h230.4v399.36c250.88 15.36 440.32 71.68 440.32 143.36 0 66.56-189.44 122.88-440.32 138.24zM552.96 407.040c-271.36 0-491.52 40.96-491.52 92.16 0 46.080 158.72 81.92 368.64 92.16v-133.12c35.84 0 76.8-5.12 122.88-5.12 35.84 0 76.8 0 112.64 5.12v133.12c215.040-10.24 378.88-46.080 378.88-92.16 0-51.2-220.16-92.16-491.52-92.16z" />
<glyph unicode="&#xe91b;" glyph-name="ltc" horiz-adv-x="837" d="M362.077 128.354l50.917 299.845 277.215 192.354 11.315 158.409-260.243-181.039 67.89 362.077h-248.928l-96.177-560.088-152.751-107.492-11.315-158.409 130.122 96.177-50.917-294.188h724.155l33.945 192.354z" />
<glyph unicode="&#xe91c;" glyph-name="eth" horiz-adv-x="634" d="M634.478 437.961l-317.239 522.039-313.224-522.039 313.224-184.722 317.239 184.722zM0 377.725l313.224-441.725 313.224 441.725-313.224-184.722-313.224 184.722z" />
<glyph unicode="&#xe91d;" glyph-name="btc" horiz-adv-x="754" d="M660.502 423.619l-13.299 4.433 17.732 4.433c31.030 13.299 57.628 35.463 75.359 70.926 4.433 17.732 13.299 62.061 13.299 84.225 0 75.359-53.195 128.554-168.45 168.45l-22.165 4.433 26.597 150.719-88.658 17.732-13.299-70.926-8.866-75.359-35.463 4.433-35.463 8.866 26.597 141.853-48.762 13.299-44.329 8.866-17.732-75.359-13.299-75.359-177.316 35.463-17.732-88.658 39.896-8.866c35.463-8.866 39.896-8.866 48.762-13.299 8.866-13.299 17.732-22.165 17.732-35.463s-79.792-412.26-84.225-421.126c0-4.433-8.866-8.866-8.866-13.299l-8.866-4.433-79.792 17.732-17.732-48.762c-13.299-26.597-22.165-48.762-22.165-53.195s8.866-4.433 84.225-22.165c44.329-8.866 84.225-17.732 88.658-22.165h4.433l-13.299-75.359-17.732-70.926 97.524-17.732 26.597 150.719 70.926-17.732-26.597-150.719 88.658-17.732 26.597 150.719h4.433c4.433 0 8.866 0 13.299 0 26.597-4.433 79.792-4.433 115.255-4.433 44.329 4.433 79.792 17.732 106.39 39.896 57.628 48.762 88.658 155.152 66.494 217.212-8.866 35.463-35.463 66.494-75.359 88.658zM562.978 268.468c-13.299-48.762-53.195-66.494-137.42-66.494-13.299 0-39.896 4.433-75.359 8.866l-53.195 8.866 17.732 97.524c8.866 53.195 22.165 97.524 22.165 97.524 4.433 0 84.225-13.299 110.823-22.165 13.299-4.433 31.030-8.866 44.329-17.732 39.896-17.732 57.628-35.463 70.926-57.628 4.433-13.299 4.433-31.030 0-48.762zM571.844 547.74c-4.433-17.732-13.299-26.597-31.030-35.463-31.030-17.732-70.926-22.165-146.286-8.866l-44.329 8.866 17.732 88.658c8.866 48.762 17.732 88.658 17.732 88.658 4.433 0 75.359-13.299 97.524-17.732 39.896-13.299 70.926-31.030 84.225-48.762 13.299-26.597 13.299-53.195 4.433-75.359z" />
<glyph unicode="&#xe91e;" glyph-name="right-arrow" horiz-adv-x="3243" d="M3242.667 448c0 34.133-17.067 51.2-34.133 68.267l-418.133 418.133c-34.133 34.133-85.333 34.133-119.467 0-17.067-17.067-25.6-34.133-25.6-59.733s8.533-42.667 25.6-59.733l281.6-281.6h-2867.2c-51.2 0-85.333-34.133-85.333-85.333s34.133-85.333 85.333-85.333h2867.2l-281.6-281.6c-17.067-17.067-25.6-34.133-25.6-59.733s8.533-42.667 25.6-59.733c34.133-34.133 85.333-34.133 119.467 0l418.133 418.133c17.067 8.533 34.133 34.133 34.133 68.267 0 0 0 0 0 0s0 0 0 0z" />
<glyph unicode="&#xe91f;" glyph-name="left-arrow" horiz-adv-x="3243" d="M3157.333 533.333h-2867.2l281.6 281.6c17.067 17.067 25.6 34.133 25.6 59.733s-8.533 42.667-25.6 59.733c-34.133 34.133-85.333 34.133-119.467 0l-418.133-418.133c-17.067-17.067-34.133-34.133-34.133-68.267s17.067-51.2 34.133-68.267l418.133-418.133c34.133-34.133 85.333-34.133 119.467 0 17.067 17.067 25.6 34.133 25.6 59.733s-8.533 42.667-25.6 59.733l-281.6 281.6h2867.2c51.2 0 85.333 34.133 85.333 85.333s-34.133 85.333-85.333 85.333z" />
<glyph unicode="&#xe920;" glyph-name="yo" horiz-adv-x="1533" d="M1467.516 862.166c-39.134 71.745-84.79 84.79-176.102 91.312-97.834 6.522-326.115 6.522-528.306 6.522s-430.471 0-521.783-6.522c-91.312-6.522-136.968-19.567-176.102-91.312-45.656-71.745-65.223-195.669-65.223-410.904 0 0 0 0 0 0s0 0 0 0v0c0-215.236 19.567-339.159 65.223-410.904 39.134-71.745 84.79-84.79 176.102-91.312s319.592-6.522 521.783-6.522c202.191 0 430.471 0 521.783 6.522s136.968 19.567 176.102 91.312c45.656 71.745 65.223 195.669 65.223 410.904 0 0 0 0 0 0s0 0 0 0c6.522 215.236-19.567 339.159-58.701 410.904zM573.962 170.803v554.395l476.127-280.459-476.127-273.936z" />
<glyph unicode="&#xe921;" glyph-name="tw" horiz-adv-x="1246" d="M1100.069 796.16c52.663 35.109 93.623 81.92 111.177 140.434-52.663-29.257-105.326-52.663-163.84-64.366-93.623 105.326-257.463 111.177-362.789 17.554-70.217-64.366-99.474-157.989-76.069-251.611-198.949 11.703-392.046 111.177-520.777 275.017-23.406-40.96-35.109-87.771-35.109-134.583 0-87.771 40.96-163.84 111.177-216.503-40.96 0-81.92 11.703-117.029 29.257v-5.851c0-122.88 87.771-228.206 204.8-251.611-23.406-5.851-46.811-11.703-70.217-11.703-17.554 0-29.257 0-46.811 5.851 35.109-105.326 128.731-175.543 239.909-181.394-87.771-70.217-198.949-111.177-315.977-111.177-23.406 0-40.96 0-64.366 5.851 117.029-76.069 251.611-117.029 392.046-117.029 397.897-5.851 725.577 315.977 731.429 719.726 0 5.851 0 11.703 0 11.703v46.811c52.663 40.96 93.623 81.92 128.731 134.583-46.811-17.554-99.474-35.109-146.286-40.96z" />
<glyph unicode="&#xe922;" glyph-name="ins" d="M514.404 710.009c0 0-4.808 0 0 0-144.225 0-264.413-120.188-264.413-264.413s120.188-264.413 264.413-259.606c144.225 0 259.606 115.38 259.606 264.413 0 144.225-115.38 259.606-259.606 259.606zM509.596 277.333c-96.15 0-168.263 76.92-168.263 168.263 0 96.15 76.92 168.263 168.263 168.263 96.15 0 168.263-76.92 168.263-168.263 4.808-91.343-72.113-168.263-168.263-168.263zM783.624 782.122c-33.653 0-62.498-28.845-62.498-62.498s28.845-62.498 62.498-62.498c33.653 0 62.498 28.845 62.498 62.498s-28.845 62.498-62.498 62.498zM1019.192 657.127c0 43.268-9.615 86.535-24.038 124.995-14.423 33.653-33.653 67.305-57.69 91.343s-57.69 48.075-91.343 57.69c-38.46 14.423-81.728 24.038-124.995 24.038-52.883 4.808-72.113 4.808-211.531 4.808s-153.84 0-206.723-4.808c-43.268 0-86.535-9.615-124.995-24.038-33.653-9.615-67.305-28.845-91.343-57.69-28.845-24.038-48.075-57.69-57.69-91.343-14.423-38.46-24.038-81.728-24.038-124.995-4.808-52.883-4.808-67.305-4.808-206.723s0-158.648 4.808-211.531c0-43.268 9.615-86.535 24.038-124.995 14.423-33.653 33.653-67.305 57.69-91.343s57.69-48.075 91.343-57.69c38.46-14.423 81.728-24.038 124.995-24.038 52.883-4.808 72.113-4.808 211.531-4.808s158.648 0 211.531 4.808c43.268 0 86.535 9.615 124.995 24.038 33.653 14.423 67.305 33.653 91.343 57.69s48.075 57.69 57.69 91.343c14.423 38.46 24.038 81.728 24.038 124.995 0 52.883 4.808 72.113 4.808 211.531s-4.808 153.84-9.615 206.723zM927.85 243.681c0-33.653-4.808-62.498-19.23-96.15-9.615-24.038-19.23-43.268-38.46-57.69-14.423-19.23-38.46-28.845-57.69-38.46-28.845-9.615-62.498-19.23-96.15-19.23-52.883-4.808-72.113-4.808-206.723-4.808s-153.84 0-206.723 4.808c-33.653 0-67.305 4.808-100.958 14.423-19.23 9.615-38.46 24.038-57.69 38.46s-28.845 38.46-38.46 57.69c-14.423 28.845-19.23 62.498-19.23 96.15 0 52.883-4.808 72.113-4.808 206.723s0 153.84 4.808 206.723c0 33.653 4.808 67.305 19.23 96.15 9.615 19.23 24.038 38.46 38.46 57.69s33.653 33.653 57.69 43.268c38.46 9.615 72.113 14.423 105.765 14.423 52.883 0 72.113 4.808 206.723 4.808s153.84 0 206.723-4.808c33.653 0 62.498-4.808 96.15-19.23 24.038-9.615 43.268-24.038 62.498-43.268 14.423-14.423 28.845-33.653 38.46-57.69 9.615-28.845 19.23-62.498 19.23-96.15 4.808-52.883 4.808-72.113 4.808-206.723-9.615-124.995-14.423-144.225-14.423-197.108z" />
<glyph unicode="&#xe923;" glyph-name="fb" horiz-adv-x="514" d="M423.061 791.737h91.343v163.455c-43.268 4.808-91.343 4.808-134.61 4.808-134.61 0-225.953-86.535-225.953-240.376v-134.61h-153.84v-182.685h153.84v-466.329h182.685v466.329h153.84l24.038 182.685h-177.878v115.38c0 52.883 9.615 91.343 86.535 91.343z" />
</font>
</defs>
</svg>
