<?xml version="1.0" encoding="utf-8"?>
<!-- Generator: Adobe Illustrator 24.1.2, SVG Export Plug-In . SVG Version: 6.00 Build 0)  -->
<svg version="1.1" xmlns="http://www.w3.org/2000/svg" xmlns:xlink="http://www.w3.org/1999/xlink" x="0px" y="0px"
	 viewBox="0 0 75 75" style="enable-background:new 0 0 75 75;" xml:space="preserve">
<style type="text/css">
	.st0{fill:#434653;}
	.st1{fill-rule:evenodd;clip-rule:evenodd;fill:#DEB144;}
	.st2{fill:#EFD8A2;}
</style>
<g id="Слой_3">
	<path class="st0" d="M74,1v73H1V1H74 M75,0H0v75h75V0L75,0z"/>
</g>
<g id="Слой_2__x28_копия_x29_">
	<path class="st1" d="M3,3h69v69H3V3z"/>
</g>
<g id="Слой_2">
</g>
<g id="Слой_4">
	<path class="st2" d="M62.7,72c0,0,0-0.1,0-0.1l0,0c-0.3-15.9-2.3-20.5-18.3-23.4c0,0-2.2,2.9-7.5,2.9s-7.5-2.9-7.5-2.9
		c-15.8,2.8-18,7.3-18.3,22.8c0,0.3,0,0.5,0,0.6h6.2c-0.1,0-0.1-0.1-0.2-0.1c0-0.1,0-0.3,0-0.4c0.1-6.1,0.5-10.5,2.1-12.7
		c1.2-1.6,3.9-2.8,8.6-3.8c2.2,1.4,5.3,2.4,9,2.4c3.7,0,6.8-1.1,9-2.4c4.8,1,7.4,2.2,8.6,3.9c1.6,2.2,2,6.8,2.1,13.1L56.6,72H62.7z"
		/>
	<path class="st2" d="M37,47.3c7.5,0,13.6-7.4,13.6-16.6c0-9.1-2-16.6-13.6-16.6s-13.6,7.4-13.6,16.6C23.4,39.8,29.5,47.3,37,47.3z
		 M30.8,22.3c0.4-0.6,1.4-2.1,6.2-2.1s5.8,1.5,6.2,2.1c1,1.5,1.5,4.3,1.5,8.4c0,5.7-3.5,10.6-7.6,10.6s-7.6-4.8-7.6-10.6
		C29.4,26.5,29.8,23.8,30.8,22.3z"/>
</g>
</svg>
