<?xml version="1.0" encoding="utf-8"?>
<!-- Generator: Adobe Illustrator 24.1.2, SVG Export Plug-In . SVG Version: 6.00 Build 0)  -->
<svg version="1.1" xmlns="http://www.w3.org/2000/svg" xmlns:xlink="http://www.w3.org/1999/xlink" x="0px" y="0px"
	 viewBox="0 0 81.6 81.6" style="enable-background:new 0 0 81.6 81.6;" xml:space="preserve">
<style type="text/css">
	.st0{fill-rule:evenodd;clip-rule:evenodd;fill:url(#SVGID_1_);}
	.st1{fill:#FFFFFF;}
</style>
<g id="Слой_1">
	<g>
		<g>
			<radialGradient id="SVGID_1_" cx="59.6618" cy="22.0987" r="35.7343" fx="58.5056" fy="22.7078" gradientUnits="userSpaceOnUse">
				<stop  offset="0" style="stop-color:#F5DFAB"/>
				<stop  offset="1" style="stop-color:#DEB144"/>
			</radialGradient>
			<path class="st0" d="M0,0v81.6h81.6V0H0z M24.9,43.8l-1.2-2.5l1.2-3.2l7.5,8.8L24.9,43.8z M57.2,43.8l-7.5,3.1l7.5-8.8l1.2,3.2
				L57.2,43.8z M68,33.4l-17.3,3.6l-0.8-3.9l-3.1,24.3l1.5,4.4L42.5,66h-1h-0.8h-1l-5.9-4.1l1.5-4.4l-3.1-24.3l-0.8,3.9l-17.3-3.6
				L4.5,20l11.4,6.5l-5.4,1l30,0v25.6l-2.6,3.9l3.2,3l3.2-3l-2.6-3.9V27.5l30,0l-5.4-1L77.6,20L68,33.4z"/>
		</g>
	</g>
</g>
<g id="Слой_2">
	<g>
		<g>
			<path class="st1" d="M18.3,95.6H6.2v2.9h4.5v11.1h3.1V98.5h4.5V95.6z M22.4,95.6l-6.1,14h3.2l1.1-2.6h5.9l1.1,2.6h3.2l-6.1-14
				H22.4z M21.7,104.4l1.8-4.2l1.8,4.2H21.7z M42.7,102.6c0.5-0.7,0.7-1.6,0.7-2.5c0-0.6-0.1-1.2-0.3-1.7c-0.2-0.5-0.5-1-0.9-1.4
				c-0.4-0.4-1-0.8-1.8-1.1c-0.8-0.3-1.7-0.4-2.8-0.4h-5.7v14h3.1v-4.8h2.2l3.4,4.8h3.7l-3.9-5.3C41.5,103.9,42.2,103.4,42.7,102.6z
				 M39.6,101.5c-0.4,0.3-1,0.5-1.8,0.5h-2.6v-3.4h2.5c0.9,0,1.6,0.1,2,0.4s0.6,0.7,0.6,1.2C40.2,100.7,40,101.2,39.6,101.5z
				 M51.2,104.9L47,95.6h-3.4l6.6,14h2.2l6.3-14h-3.3L51.2,104.9z M59.8,109.6h3.1v-14h-3.1V109.6z M75.5,103.4
				c-0.4-0.6-0.9-1-1.4-1.3c-0.6-0.3-1.2-0.5-1.9-0.8c-0.7-0.2-1.3-0.4-1.9-0.5c-0.6-0.1-1.1-0.3-1.4-0.5c-0.4-0.2-0.6-0.5-0.6-0.8
				c0-0.9,0.7-1.3,2.1-1.3c1.3,0,2.5,0.6,3.5,1.7l2.1-2c-1.3-1.7-3.1-2.6-5.5-2.6c-1.6,0-2.9,0.4-3.9,1.3s-1.5,1.8-1.5,3
				c0,0.8,0.2,1.5,0.6,2.1c0.4,0.6,0.9,1,1.4,1.3c0.6,0.3,1.2,0.5,1.9,0.8c0.7,0.2,1.3,0.4,1.9,0.6c0.6,0.1,1.1,0.3,1.4,0.6
				c0.4,0.3,0.6,0.6,0.6,1c0,0.4-0.2,0.7-0.5,0.9s-0.9,0.4-1.6,0.4c-0.9,0-1.6-0.2-2.4-0.6c-0.7-0.4-1.3-1-1.8-1.8l-2.3,1.9
				c0.5,1,1.3,1.8,2.4,2.5c1.1,0.6,2.5,1,4,1c1.5,0,2.8-0.4,3.8-1.3s1.5-1.9,1.5-3.2C76,104.7,75.8,104,75.5,103.4z"/>
		</g>
	</g>
</g>
</svg>
